<?xml version="1.0" standalone="no"?><!DOCTYPE svg PUBLIC "-//W3C//DTD SVG 1.1//EN" "http://www.w3.org/Graphics/SVG/1.1/DTD/svg11.dtd"><svg t="1591501862431" class="icon" viewBox="0 0 1024 1024" version="1.1" xmlns="http://www.w3.org/2000/svg" p-id="23309" width="32" height="32" xmlns:xlink="http://www.w3.org/1999/xlink"><defs><style type="text/css"></style></defs><path d="M504.67 932.72c0 49.71-72.67 89.94-162.2 89.94-89.54 0-162.1-40.33-162.1-89.94 0-49.71 72.67-89.83 162.2-89.83 89.63 0 162.2 40.33 162.2 89.94l-0.1-0.11z m175.08-89.84c-89.63 0-162.2 40.33-162.2 89.94 0 49.71 72.66 89.93 162.2 89.93 89.63 0 162.2-40.33 162.2-89.93 0-49.71-72.67-89.94-162.2-89.94z m0 0" fill="#FFC615" p-id="23310"></path><path d="M869.7 501.12s-12.17-12.18-25.35-24.46V333.53c0-118.88-63.38-228.78-166.39-288.26-103.01-59.49-229.87-59.49-332.88 0-103.01 59.49-166.39 169.38-166.39 288.26v143.13c-13.28 12.18-25.55 24.46-25.55 24.46-21.56 32.94-73.26 117.08-73.26 196.54 0 79.45 21.76 93.02 29.94 93.63 8.18 0.6 35.53-6.99 68.67-58.19 45.02 149.62 176.87 258.02 332.59 258.02 155.71 0 288.06-108.4 332.88-258.02 33.44 51.51 61.69 59.19 69.17 58.5 7.59-0.7 29.94-14.28 29.94-93.63s-51.6-163.59-73.26-196.13l-0.11-0.72z m0 0" fill="#37464F" p-id="23311"></path><path d="M266.62 558.41c-2.59 19.36-3.79 38.83-3.69 58.39 0 181.76 113.29 329.59 252.93 329.59S768.79 799.07 768.79 616.8c0-19.47-1.3-39.03-3.89-58.39H266.62z m157.31-405.05c-36.64 0-67.18 40.73-67.18 91.03 0 50.31 30.04 91.03 67.18 91.03 37.13 0 67.18-40.72 67.18-91.03-0.01-50.3-30.05-91.03-67.18-91.03z m11.17 128.07c-13.57 0-24.45-16.77-24.45-37.33 0-20.66 10.98-37.33 24.45-37.33 13.48 0 24.46 16.77 24.46 37.33-0.1 20.56-11.08 37.33-24.46 37.33z m166-128.07c-36.64 0-67.18 40.73-67.18 91.03 0 50.31 30.04 91.03 67.18 91.03 37.13 0 67.18-40.72 67.18-91.03-0.11-50.3-30.15-91.03-67.18-91.03z m11.28 94.43c0 1-0.8 1.8-1.8 1.8-0.8 0-1.5-0.5-1.7-1.3-2.59-9.58-10.78-16.67-20.66-17.87-9.78 1.4-17.67 8.49-20.16 18.07-0.3 0.7-0.9 1.1-1.6 1.1-1 0-1.8-0.8-1.8-1.8v-3.09c0-20.67 10.98-37.33 24.46-37.33s24.46 16.77 24.46 37.33v3.19l-1.2-0.1z m0 0" fill="#FFFFFF" p-id="23312"></path><path d="M247.95 540.15c-6.09 30.54-19.06 167.59-12.97 198.13 6.09 30.54 31.74 25.35 68.57 25.75 36.83 0.4 77.36 10.08 77.96-34.64 0.59-44.81 0.7-133.05 10.88-165.59 10.18-32.64-144.44-23.65-144.44-23.65z m0 0" fill="#FF392E" p-id="23313"></path><path d="M239.86 605.53l143.34 46.41c0-29.55 3.19-59.09 9.38-88.04 10.08-32.54-144.53-23.76-144.53-23.76-2.2 11.09-5.39 36.64-8.19 65.39z m0 0" fill="#DD2C00" p-id="23314"></path><path d="M512.06 462c111.7 0 202.53-40.63 202.53-65.78 0-19.06-90.53-38.73-202.22-38.73s-202.23 17.67-202.23 38.73c0 23.75 90.53 65.78 202.23 65.78h-0.31z m0 0" fill="#FFC615" p-id="23315"></path><path d="M514.15 486.55s128.26 1.3 230.68-42.12c102.41-43.42 101.41-48.81 112.69-48.81 11.28 0 24.45 16.07 30.04 45.12 5.59 29.05 12.18 52-12.17 66.28-24.46 14.27-180.67 106.3-357.24 106.3h-8.79c-176.57 0-333.38-92.13-357.23-106.3-23.96-14.17-17.37-36.63-12.18-66.28 5.09-29.64 18.76-45.12 30.04-45.12 11.18 0 10.08 4.89 112.69 48.81 102.51 43.92 230.67 42.12 230.67 42.12h0.8z m0 0" fill="#FF392E" p-id="23316"></path></svg>