<?xml version="1.0" standalone="no"?><!DOCTYPE svg PUBLIC "-//W3C//DTD SVG 1.1//EN" "http://www.w3.org/Graphics/SVG/1.1/DTD/svg11.dtd"><svg t="1591501824419" class="icon" viewBox="0 0 1024 1024" version="1.1" xmlns="http://www.w3.org/2000/svg" p-id="22394" width="32" height="32" xmlns:xlink="http://www.w3.org/1999/xlink"><defs><style type="text/css"></style></defs><path d="M1010.797714 628.004571c0-141.202286-141.293714-256.201143-299.885714-256.201142-168.009143 0-300.306286 115.090286-300.306286 256.182857 0 141.421714 132.297143 256.219429 300.288 256.219428 35.2 0 70.710857-8.905143 106.002286-17.700571l96.804571 52.992-26.605714-88.192c70.912-53.211429 123.702857-123.702857 123.702857-203.300572zM618.002286 588.8a39.990857 39.990857 0 1 1-0.018286-79.981714 39.990857 39.990857 0 0 1 0 79.981714z m194.304-0.292571a39.990857 39.990857 0 1 1-0.036572-79.981715 39.990857 39.990857 0 0 1 0.036572 79.981715z" fill="#00C800" p-id="22395"></path><path d="M366.299429 106.898286C172.196571 106.898286 13.202286 239.195429 13.202286 407.222857c0 96.987429 52.900571 176.603429 141.293714 238.390857l-35.291429 106.203429 123.392-61.897143c44.196571 8.704 79.597714 17.700571 123.702858 17.700571 11.099429 0 22.107429-0.493714 33.005714-1.408a262.765714 262.765714 0 0 1-10.898286-74.002285c0-154.294857 132.498286-279.497143 300.196572-279.497143 11.501714 0 22.802286 0.804571 34.011428 2.102857-30.610286-142.189714-182.710857-247.899429-356.315428-247.899429z m-118.601143 242.285714a48.018286 48.018286 0 1 1 0.018285-96 48.018286 48.018286 0 0 1 0 96z m246.601143 0a48.018286 48.018286 0 1 1 0.018285-96 48.018286 48.018286 0 0 1-0.018285 96z" fill="#00C800" p-id="22396"></path></svg>